{
  "accessors": [
    {
      "bufferView": 2,
      "componentType": 5126,
      "count": 1338,
      "max": [
        3.0869698524475098,
        1.1474310159683228,
        0.19129316508769989
      ],
      "min": [
        -0.32736706733703613,
        -3.506324291229248,
        -0.12110073119401932
      ],
      "type": "VEC3"
    },
    {
      "bufferView": 2,
      "byteOffset": 16056,
      "componentType": 5126,
      "count": 1338,
      "max": [
        1,
        0.98097294569015503,
        1
      ],
      "min": [
        -1,
        -0.99808299541473389,
        -0.88297653198242188
      ],
      "type": "VEC3"
    },
    {
      "bufferView": 3,
      "componentType": 5126,
      "count": 1338,
      "max": [
        0.95545858144760132,
        1,
        0.99999725818634033,
        1
      ],
      "min": [
        -0.88514524698257446,
        -0.98777878284454346,
        -0.99999910593032837,
        1
      ],
      "type": "VEC4"
    },
    {
      "bufferView": 1,
      "componentType": 5126,
      "count": 1338,
      "max": [
        0.99946779012680054,
        0.99966263771057129
      ],
      "min": [
        0.00033738274942152202,
        0.00033738274942152202
      ],
      "type": "VEC2"
    },
    {
      "bufferView": 1,
      "byteOffset": 10704,
      "componentType": 5126,
      "count": 1338,
      "max": [
        0.99946779012680054,
        0.99966263771057129
      ],
      "min": [
        0.00033738274942152202,
        0.00033738274942152202
      ],
      "type": "VEC2"
    },
    {
      "bufferView": 1,
      "byteOffset": 21408,
      "componentType": 5126,
      "count": 1338,
      "max": [
        0.99946779012680054,
        0.99966263771057129
      ],
      "min": [
        0.00033738274942152202,
        0.00033738274942152202
      ],
      "type": "VEC2"
    },
    {
      "bufferView": 0,
      "componentType": 5125,
      "count": 5481,
      "max": [
        1337
      ],
      "min": [
        0
      ],
      "type": "SCALAR"
    },
    {
      "bufferView": 2,
      "byteOffset": 32112,
      "componentType": 5126,
      "count": 280,
      "max": [
        1.1434729099273682,
        3.0770668983459473,
        2.9075393676757812
      ],
      "min": [
        -2.3897294998168945,
        -0.092794850468635559,
        -0.6426699161529541
      ],
      "type": "VEC3"
    },
    {
      "bufferView": 2,
      "byteOffset": 35472,
      "componentType": 5126,
      "count": 280,
      "max": [
        0.99501192569732666,
        0.98783314228057861,
        0.88396376371383667
      ],
      "min": [
        -0.99458229541778564,
        -0.9648594856262207,
        -0.46853736042976379
      ],
      "type": "VEC3"
    },
    {
      "bufferView": 3,
      "byteOffset": 21408,
      "componentType": 5126,
      "count": 280,
      "max": [
        0.99786430597305298,
        0.9918982982635498,
        0.8442191481590271,
        1
      ],
      "min": [
        -0.99510049819946289,
        -0.9916192889213562,
        -0.85995757579803467,
        1
      ],
      "type": "VEC4"
    },
    {
      "bufferView": 1,
      "byteOffset": 32112,
      "componentType": 5126,
      "count": 280,
      "max": [
        0.9975438117980957,
        0.99732577800750732
      ],
      "min": [
        0.0024363473057746887,
        0.0024373531341552734
      ],
      "type": "VEC2"
    },
    {
      "bufferView": 1,
      "byteOffset": 34352,
      "componentType": 5126,
      "count": 280,
      "max": [
        0.9975438117980957,
        0.99732577800750732
      ],
      "min": [
        0.0024363473057746887,
        0.0024373531341552734
      ],
      "type": "VEC2"
    },
    {
      "bufferView": 1,
      "byteOffset": 36592,
      "componentType": 5126,
      "count": 280,
      "max": [
        0.9975438117980957,
        0.99732577800750732
      ],
      "min": [
        0.0024363473057746887,
        0.0024373531341552734
      ],
      "type": "VEC2"
    },
    {
      "bufferView": 0,
      "byteOffset": 21924,
      "componentType": 5125,
      "count": 1128,
      "max": [
        279
      ],
      "min": [
        0
      ],
      "type": "SCALAR"
    },
    {
      "bufferView": 2,
      "byteOffset": 38832,
      "componentType": 5126,
      "count": 195,
      "max": [
        0.44219788908958435,
        3.4038641452789307,
        0.45540967583656311
      ],
      "min": [
        -1.4325388669967651,
        -0.52970999479293823,
        -0.26559722423553467
      ],
      "type": "VEC3"
    },
    {
      "bufferView": 2,
      "byteOffset": 41172,
      "componentType": 5126,
      "count": 195,
      "max": [
        0.99416577816009521,
        0.97982853651046753,
        0.9905666708946228
      ],
      "min": [
        -0.97302871942520142,
        -0.99704635143280029,
        -0.68220227956771851
      ],
      "type": "VEC3"
    },
    {
      "bufferView": 3,
      "byteOffset": 25888,
      "componentType": 5126,
      "count": 195,
      "max": [
        0.70516753196716309,
        0.96658980846405029,
        0.98460203409194946,
        1
      ],
      "min": [
        -0.92700678110122681,
        -0.95413285493850708,
        -0.98882615566253662,
        1
      ],
      "type": "VEC4"
    },
    {
      "bufferView": 1,
      "byteOffset": 38832,
      "componentType": 5126,
      "count": 195,
      "max": [
        0.40109735727310181,
        0.96247410774230957
      ],
      "min": [
        0.075964175164699554,
        0.80816668272018433
      ],
      "type": "VEC2"
    },
    {
      "bufferView": 1,
      "byteOffset": 40392,
      "componentType": 5126,
      "count": 195,
      "max": [
        0.40109735727310181,
        0.96247410774230957
      ],
      "min": [
        0.075964175164699554,
        0.80816668272018433
      ],
      "type": "VEC2"
    },
    {
      "bufferView": 1,
      "byteOffset": 41952,
      "componentType": 5126,
      "count": 195,
      "max": [
        0.40109735727310181,
        0.96247410774230957
      ],
      "min": [
        0.075964175164699554,
        0.80816668272018433
      ],
      "type": "VEC2"
    },
    {
      "bufferView": 0,
      "byteOffset": 26436,
      "componentType": 5125,
      "count": 1008,
      "max": [
        194
      ],
      "min": [
        0
      ],
      "type": "SCALAR"
    },
    {
      "bufferView": 2,
      "byteOffset": 43512,
      "componentType": 5126,
      "count": 502,
      "max": [
        1.1184538602828979,
        1.1184538602828979,
        0.12499995529651642
      ],
      "min": [
        -1.1184538602828979,
        -1.1184538602828979,
        -0.125
      ],
      "type": "VEC3"
    },
    {
      "bufferView": 2,
      "byteOffset": 49536,
      "componentType": 5126,
      "count": 502,
      "max": [
        0.99722594022750854,
        0.99722594022750854,
        1
      ],
      "min": [
        -0.99722594022750854,
        -0.99722594022750854,
        -1
      ],
      "type": "VEC3"
    },
    {
      "bufferView": 3,
      "byteOffset": 29008,
      "componentType": 5126,
      "count": 502,
      "max": [
        0.999397873878479,
        0.90568196773529053,
        0.99714469909667969,
        1
      ],
      "min": [
        -0.99940413236618042,
        -0.90573471784591675,
        -0.75101643800735474,
        1
      ],
      "type": "VEC4"
    },
    {
      "bufferView": 1,
      "byteOffset": 43512,
      "componentType": 5126,
      "count": 502,
      "max": [
        0.97541439533233643,
        0.99981582164764404
      ],
      "min": [
        0.00018409999029245228,
        0.00018409999029245228
      ],
      "type": "VEC2"
    },
    {
      "bufferView": 0,
      "byteOffset": 30468,
      "componentType": 5125,
      "count": 2496,
      "max": [
        501
      ],
      "min": [
        0
      ],
      "type": "SCALAR"
    }
  ],
  "asset": {
    "extras": {
      "author": "Ananda Yokesh (https://sketchfab.com/anandayokesh)",
      "license": "CC-BY-4.0 (http://creativecommons.org/licenses/by/4.0/)",
      "source": "https://sketchfab.com/3d-models/wooden-spike-trap-6f761415f86b46c5bdd4a5a188426d72",
      "title": "Wooden Spike Trap"
    },
    "generator": "Sketchfab-8.64.0",
    "version": "2.0"
  },
  "bufferViews": [
    {
      "buffer": 0,
      "byteLength": 40452,
      "byteOffset": 0,
      "name": "floatBufferViews",
      "target": 34963
    },
    {
      "buffer": 0,
      "byteLength": 47528,
      "byteOffset": 40452,
      "byteStride": 8,
      "name": "floatBufferViews",
      "target": 34962
    },
    {
      "buffer": 0,
      "byteLength": 55560,
      "byteOffset": 87980,
      "byteStride": 12,
      "name": "floatBufferViews",
      "target": 34962
    },
    {
      "buffer": 0,
      "byteLength": 37040,
      "byteOffset": 143540,
      "byteStride": 16,
      "name": "floatBufferViews",
      "target": 34962
    }
  ],
  "buffers": [
    {
      "byteLength": 180580,
      "uri": "scene.bin"
    }
  ],
  "images": [
    {
      "uri": "textures/ST_Floor_baseColor.png"
    },
    {
      "uri": "textures/ST_Floor_metallicRoughness.png"
    },
    {
      "uri": "textures/ST_Floor_normal.png"
    },
    {
      "uri": "textures/ST_Spike_baseColor.png"
    },
    {
      "uri": "textures/ST_Spike_metallicRoughness.png"
    },
    {
      "uri": "textures/ST_Spike_normal.png"
    },
    {
      "uri": "textures/ST_Base_baseColor.png"
    },
    {
      "uri": "textures/ST_Base_metallicRoughness.png"
    },
    {
      "uri": "textures/ST_Base_normal.png"
    }
  ],
  "materials": [
    {
      "doubleSided": true,
      "name": "ST_Floor",
      "normalTexture": {
        "index": 2,
        "scale": 1,
        "texCoord": 0
      },
      "pbrMetallicRoughness": {
        "baseColorFactor": [
          1,
          1,
          1,
          1
        ],
        "baseColorTexture": {
          "index": 0,
          "texCoord": 0
        },
        "metallicFactor": 0,
        "metallicRoughnessTexture": {
          "index": 1,
          "texCoord": 0
        },
        "roughnessFactor": 1
      }
    },
    {
      "doubleSided": true,
      "name": "ST_Spike",
      "normalTexture": {
        "index": 5,
        "scale": 1,
        "texCoord": 0
      },
      "pbrMetallicRoughness": {
        "baseColorFactor": [
          1,
          1,
          1,
          1
        ],
        "baseColorTexture": {
          "index": 3,
          "texCoord": 0
        },
        "metallicFactor": 1,
        "metallicRoughnessTexture": {
          "index": 4,
          "texCoord": 0
        },
        "roughnessFactor": 1
      }
    },
    {
      "doubleSided": true,
      "emissiveFactor": [
        1,
        1,
        1
      ],
      "emissiveTexture": {
        "index": 6,
        "texCoord": 0
      },
      "name": "ST_Base",
      "normalTexture": {
        "index": 8,
        "scale": 1,
        "texCoord": 0
      },
      "pbrMetallicRoughness": {
        "baseColorFactor": [
          1,
          1,
          1,
          1
        ],
        "baseColorTexture": {
          "index": 6,
          "texCoord": 0
        },
        "metallicFactor": 0,
        "metallicRoughnessTexture": {
          "index": 7,
          "texCoord": 0
        },
        "roughnessFactor": 1
      }
    }
  ],
  "meshes": [
    {
      "name": "SpikeTeap_Floor_LP.001_ST_Floor_0",
      "primitives": [
        {
          "attributes": {
            "NORMAL": 1,
            "POSITION": 0,
            "TANGENT": 2,
            "TEXCOORD_0": 3,
            "TEXCOORD_1": 4,
            "TEXCOORD_2": 5
          },
          "indices": 6,
          "material": 0,
          "mode": 4
        }
      ]
    },
    {
      "name": "SpikeTeap_spike_LP.002_ST_Spike_0",
      "primitives": [
        {
          "attributes": {
            "NORMAL": 8,
            "POSITION": 7,
            "TANGENT": 9,
            "TEXCOORD_0": 10,
            "TEXCOORD_1": 11,
            "TEXCOORD_2": 12
          },
          "indices": 13,
          "material": 1,
          "mode": 4
        }
      ]
    },
    {
      "name": "SpikeTeap_spike_LP.003_ST_Spike_0",
      "primitives": [
        {
          "attributes": {
            "NORMAL": 15,
            "POSITION": 14,
            "TANGENT": 16,
            "TEXCOORD_0": 17,
            "TEXCOORD_1": 18,
            "TEXCOORD_2": 19
          },
          "indices": 20,
          "material": 1,
          "mode": 4
        }
      ]
    },
    {
      "name": "Cylinder_ST_Base_0",
      "primitives": [
        {
          "attributes": {
            "NORMAL": 22,
            "POSITION": 21,
            "TANGENT": 23,
            "TEXCOORD_0": 24
          },
          "indices": 25,
          "material": 2,
          "mode": 4
        }
      ]
    }
  ],
  "nodes": [
    {
      "children": [
        1
      ],
      "name": "RootNode (gltf orientation matrix)",
      "rotation": [
        -0.70710678118654746,
        -0,
        -0,
        0.70710678118654757
      ]
    },
    {
      "children": [
        2
      ],
      "name": "RootNode (model correction matrix)"
    },
    {
      "children": [
        3
      ],
      "matrix": [
        1,
        0,
        0,
        0,
        0,
        0,
        1,
        0,
        0,
        -1,
        0,
        0,
        0,
        0,
        0,
        1
      ],
      "name": "6630aae1e5f14d62ac6fa61e25038ab8.fbx"
    },
    {
      "children": [
        4,
        6,
        8,
        10
      ],
      "name": "RootNode"
    },
    {
      "children": [
        5
      ],
      "matrix": [
        29.20551872253418,
        0,
        0,
        0,
        -0,
        -4.7581829522661204e-06,
        -29.205518722533792,
        0,
        0,
        29.205518722533792,
        -4.7581829522661204e-06,
        0,
        -41.070652008056641,
        1.7949502468109131,
        -30.616060256958008,
        1
      ],
      "name": "SpikeTeap_Floor_LP.001"
    },
    {
      "mesh": 0,
      "name": "SpikeTeap_Floor_LP.001_ST_Floor_0"
    },
    {
      "children": [
        7
      ],
      "matrix": [
        21.016668957289571,
        -0.62409988774635394,
        21.4910410681325,
        0,
        21.273305499174363,
        4.9573260853376926,
        -20.659778706971505,
        0,
        -3.1146417914519531,
        29.647769886027305,
        3.9068635643615428,
        0,
        -12.579968452453613,
        -4.492774486541748,
        43.039642333984375,
        1
      ],
      "name": "SpikeTeap_spike_LP.002"
    },
    {
      "mesh": 1,
      "name": "SpikeTeap_spike_LP.002_ST_Spike_0"
    },
    {
      "children": [
        9
      ],
      "matrix": [
        21.016668957289571,
        -0.62409988774635394,
        21.4910410681325,
        0,
        21.273305499174363,
        4.9573260853376926,
        -20.659778706971505,
        0,
        -3.1146417914519531,
        29.647769886027305,
        3.9068635643615428,
        0,
        -12.579968452453613,
        -4.492774486541748,
        43.039642333984375,
        1
      ],
      "name": "SpikeTeap_spike_LP.003"
    },
    {
      "mesh": 2,
      "name": "SpikeTeap_spike_LP.003_ST_Spike_0"
    },
    {
      "children": [
        11
      ],
      "matrix": [
        109.41412353515625,
        0,
        0,
        0,
        -0,
        -1.7825823341409427e-05,
        -109.4141235351548,
        0,
        0,
        116.16630554199065,
        -1.8925893421340438e-05,
        0,
        -0.99956727027893066,
        -12.988035202026367,
        -0.95825344324111938,
        1
      ],
      "name": "Cylinder"
    },
    {
      "mesh": 3,
      "name": "Cylinder_ST_Base_0"
    }
  ],
  "samplers": [
    {
      "magFilter": 9729,
      "minFilter": 9987,
      "wrapS": 10497,
      "wrapT": 10497
    }
  ],
  "scene": 0,
  "scenes": [
    {
      "name": "OSG_Scene",
      "nodes": [
        0
      ]
    }
  ],
  "textures": [
    {
      "sampler": 0,
      "source": 0
    },
    {
      "sampler": 0,
      "source": 1
    },
    {
      "sampler": 0,
      "source": 2
    },
    {
      "sampler": 0,
      "source": 3
    },
    {
      "sampler": 0,
      "source": 4
    },
    {
      "sampler": 0,
      "source": 5
    },
    {
      "sampler": 0,
      "source": 6
    },
    {
      "sampler": 0,
      "source": 7
    },
    {
      "sampler": 0,
      "source": 8
    }
  ]
}

